<svg width="153" height="36" fill="none" xmlns="http://www.w3.org/2000/svg"><path d="M67.198 14.398c-3.28 0-5.467 2.202-5.467 5.483 0 3.282 2.186 5.442 5.467 5.442 3.281 0 5.487-2.18 5.487-5.442 0-3.261-2.186-5.483-5.487-5.483zm0 8.786c-1.65 0-2.578-1.204-2.578-3.303s.928-3.344 2.578-3.344 2.6 1.204 2.6 3.344c0 2.14-.97 3.303-2.6 3.303zm63.146-8.786c-3.363 0-5.508 2.139-5.508 5.483 0 3.345 2.124 5.442 5.508 5.442 2.909 0 4.704-1.35 5.074-3.386.022-.124-.062-.166-.227-.166h-2.31c-.123 0-.205.042-.247.187-.268.789-1.031 1.268-2.249 1.268-1.587 0-2.496-.935-2.64-2.576h7.509a.23.23 0 0 0 .227-.229v-.581c0-3.386-1.94-5.442-5.137-5.442zm-2.599 4.549c.164-1.598 1.072-2.45 2.619-2.45 1.382 0 2.249.893 2.351 2.45h-4.972.002zm-43.692.187v5.816a.217.217 0 0 1-.227.229h-2.393c-.145 0-.227-.083-.227-.229v-5.816c0-1.703-.64-2.493-2.063-2.493s-2.104.789-2.104 2.493v5.816c0 .146-.082.229-.206.229h-2.392c-.145 0-.227-.083-.227-.229V14.773c0-.146.082-.229.227-.229h2.25c.144 0 .226.083.226.229V16.1H77c.742-1.101 1.9-1.703 3.322-1.703 2.414 0 3.733 1.599 3.733 4.736h-.001zm68.758-4.363l-2.618 9.691a.965.965 0 0 1-.93.715h-2.159a.962.962 0 0 1-.935-.738l-1.812-7.445h-.062l-1.809 7.445a.964.964 0 0 1-.935.738h-2.099a.965.965 0 0 1-.93-.715l-2.619-9.691a.179.179 0 0 1 .171-.227h2.534a.22.22 0 0 1 .214.171l1.833 7.956h.082l1.859-7.956a.221.221 0 0 1 .215-.17h3.215a.22.22 0 0 1 .214.17l1.856 7.956h.082l1.829-7.956a.22.22 0 0 1 .215-.17h2.413c.118 0 .204.113.174.226h.002zM61.25 24.959a.18.18 0 0 1-.175.218h-2.537a.22.22 0 0 1-.216-.186l-1.33-7.943h-.083l-2.238 7.967a.22.22 0 0 1-.211.162h-3.092a.22.22 0 0 1-.21-.162l-2.237-7.967h-.082l-1.332 7.943a.221.221 0 0 1-.217.186h-2.41a.18.18 0 0 1-.175-.218l2.056-9.65a.966.966 0 0 1 .942-.767h2.155a.96.96 0 0 1 .922.695l2.2 7.488h.062l2.197-7.488a.964.964 0 0 1 .923-.695h2.092c.454 0 .845.319.94.765l2.06 9.65-.004.002zm29.61-10.56c-3.362 0-5.508 2.138-5.508 5.482 0 3.345 2.124 5.442 5.509 5.442 2.909 0 4.704-1.35 5.074-3.386.021-.124-.063-.166-.227-.166h-2.31c-.124 0-.206.042-.247.187-.268.789-1.032 1.268-2.25 1.268-1.587 0-2.495-.935-2.64-2.576h7.51a.23.23 0 0 0 .226-.229v-.581c0-3.386-1.94-5.442-5.136-5.442zm-2.599 4.548c.165-1.598 1.073-2.45 2.62-2.45 1.382 0 2.249.893 2.35 2.45H88.26h.002zm31.15-4.133l-3.711 9.742a.965.965 0 0 1-.9.623h-2.061a.962.962 0 0 1-.899-.623l-3.712-9.742c-.063-.165 0-.27.165-.27h2.495c.124 0 .227.042.269.187l2.723 7.94h.082l2.723-7.94c.041-.145.144-.187.268-.187h2.392c.145 0 .227.105.165.27h.001zm3.9-.041V24.95c0 .146-.083.229-.206.229h-2.392c-.145 0-.227-.083-.227-.229V14.773c0-.146.082-.229.227-.229h2.392c.123 0 .206.083.206.229zm.375-3.672c0 .993-.801 1.8-1.788 1.8a1.795 1.795 0 0 1-1.788-1.8c0-.994.801-1.8 1.788-1.8s1.788.806 1.788 1.8zm-16.631 3.672v11.235c0 2.036-1.092 3.116-3.094 3.116h-5.468c-.123 0-.205-.083-.205-.229v-1.62c0-.145.082-.228.205-.228h5.439a.276.276 0 0 0 .275-.277v-3.026h-.082c-.413.851-1.631 1.474-2.846 1.474-2.66 0-3.982-1.515-3.982-4.631V14.77c0-.126.102-.229.227-.229h2.392c.124 0 .206.083.206.229v6.043c0 1.432.742 2.201 2.042 2.201 1.299 0 2.041-.727 2.041-2.201V14.77c0-.126.102-.229.228-.229h2.392c.125 0 .227.103.227.229l.003.002zM17.879 36c9.874 0 17.878-8.059 17.878-18S27.753 0 17.88 0 0 8.059 0 18s8.005 18 17.879 18z" fill="#144835"/><path fill-rule="evenodd" clip-rule="evenodd" d="M27.517 25.184l-4.39-10.408-4.392 10.408h-5.13l-2.946-6.986-2.946 6.986H2.98l5.214-11.475a1.864 1.864 0 0 1 1.693-1.095h1.546c.726 0 1.392.43 1.694 1.095l2.782 6.123 4.505-9.916a2.076 2.076 0 0 1 1.88-1.217h1.662c.806 0 1.544.477 1.88 1.217l6.936 15.268h-5.258.003z" fill="#fff"/></svg>